<svg width="168" height="44" viewBox="0 0 168 44" fill="none" xmlns="http://www.w3.org/2000/svg">
<rect width="20" height="20" rx="6" fill="#3F74C6"/>
<rect x="24" width="20" height="20" rx="6" fill="#E65747"/>
<rect y="24" width="20" height="20" rx="6" fill="#F2D247"/>
<rect x="24" y="24" width="20" height="20" rx="6" fill="#8eb2e5"/>
<path d="M64.664 34.288C63.5333 34.288 62.552 34.16 61.72 33.904C60.888 33.648 60.1947 33.2533 59.64 32.72C59.1067 32.1867 58.7013 31.5147 58.424 30.704C58.168 29.8933 58.04 28.944 58.04 27.856V15.44C58.04 14.9493 58.0827 14.5013 58.168 14.096C58.2533 13.6693 58.4987 13.328 58.904 13.072C59.3093 12.7947 59.992 12.656 60.952 12.656C61.8907 12.656 62.5627 12.8053 62.968 13.104C63.3733 13.3813 63.6187 13.744 63.704 14.192C63.7893 14.64 63.832 15.0987 63.832 15.568V27.568C63.832 27.8027 63.8427 28.0053 63.864 28.176C63.9067 28.3253 63.96 28.4427 64.024 28.528C64.088 28.6133 64.1733 28.6773 64.28 28.72C64.3867 28.7627 64.5253 28.784 64.696 28.784C65.2507 28.784 65.7413 28.8267 66.168 28.912C66.616 28.9973 66.9573 29.2213 67.192 29.584C67.448 29.9467 67.576 30.5547 67.576 31.408C67.576 32.368 67.4267 33.0507 67.128 33.456C66.8293 33.8613 66.456 34.096 66.008 34.16C65.56 34.2453 65.112 34.288 64.664 34.288ZM57.368 18.224H61.112L65.528 18.064C65.9973 18.064 66.4453 18.1067 66.872 18.192C67.32 18.2773 67.6827 18.5227 67.96 18.928C68.2587 19.3333 68.408 20.0267 68.408 21.008C68.408 21.904 68.2587 22.5547 67.96 22.96C67.6827 23.3653 67.32 23.6213 66.872 23.728C66.4453 23.8347 65.9867 23.888 65.496 23.888L61.432 23.792H57.24C56.5147 23.7493 56.0133 23.5147 55.736 23.088C55.4587 22.6613 55.32 21.9573 55.32 20.976C55.32 20.0587 55.4907 19.376 55.832 18.928C56.1733 18.4587 56.6853 18.224 57.368 18.224ZM82.6708 34.224C81.7108 34.224 80.9961 34.064 80.5268 33.744C80.0788 33.424 79.8654 33.0613 79.8868 32.656H80.3348C80.2281 32.8053 80.0148 33.008 79.6948 33.264C79.3961 33.4987 78.9908 33.7227 78.4788 33.936C77.9668 34.128 77.3374 34.224 76.5908 34.224C75.6308 34.224 74.7028 34.0107 73.8068 33.584C72.9321 33.136 72.1428 32.528 71.4388 31.76C70.7561 30.992 70.2121 30.128 69.8068 29.168C69.4014 28.1867 69.1988 27.1627 69.1988 26.096C69.1988 25.0507 69.4014 24.048 69.8068 23.088C70.2121 22.128 70.7668 21.2747 71.4708 20.528C72.1748 19.76 72.9641 19.1627 73.8388 18.736C74.7134 18.288 75.6308 18.064 76.5908 18.064C77.3161 18.064 77.9241 18.1707 78.4148 18.384C78.9268 18.5973 79.3321 18.832 79.6308 19.088C79.9508 19.344 80.1641 19.5573 80.2708 19.728H79.9188C79.8974 19.1947 80.1108 18.7787 80.5588 18.48C81.0281 18.1813 81.7428 18.032 82.7028 18.032C83.6628 18.032 84.3348 18.1813 84.7188 18.48C85.1241 18.7573 85.3694 19.12 85.4548 19.568C85.5401 20.016 85.5828 20.4747 85.5828 20.944V31.344C85.5828 31.8133 85.5401 32.272 85.4548 32.72C85.3694 33.168 85.1241 33.5307 84.7188 33.808C84.3348 34.0853 83.6521 34.224 82.6708 34.224ZM77.3908 28.432C77.7961 28.432 78.1588 28.3253 78.4788 28.112C78.8201 27.8987 79.0868 27.6213 79.2788 27.28C79.4921 26.9173 79.5988 26.5333 79.5988 26.128C79.5988 25.7013 79.4921 25.3173 79.2788 24.976C79.0868 24.6347 78.8201 24.3573 78.4788 24.144C78.1374 23.9307 77.7534 23.824 77.3268 23.824C76.9001 23.824 76.5054 23.9307 76.1428 24.144C75.8014 24.3573 75.5241 24.6453 75.3108 25.008C75.0974 25.3493 74.9908 25.7333 74.9908 26.16C74.9908 26.5653 75.0974 26.9387 75.3108 27.28C75.5454 27.6213 75.8441 27.8987 76.2068 28.112C76.5694 28.3253 76.9641 28.432 77.3908 28.432ZM96.3873 34.224C95.3419 34.224 94.4353 34 93.6673 33.552C92.8993 33.0827 92.2699 32.464 91.7793 31.696C91.2886 30.9067 90.9259 30.032 90.6913 29.072C90.4566 28.0907 90.3499 27.0773 90.3713 26.032C90.3926 25.008 90.5206 24.016 90.7552 23.056C91.0113 22.096 91.3846 21.2427 91.8753 20.496C92.3659 19.7493 92.9846 19.1627 93.7313 18.736C94.4779 18.288 95.3633 18.064 96.3873 18.064C97.3259 18.064 98.2326 18.288 99.1073 18.736C100.003 19.184 100.803 19.792 101.507 20.56C102.211 21.3067 102.766 22.16 103.171 23.12C103.577 24.08 103.779 25.072 103.779 26.096C103.779 27.1627 103.577 28.1867 103.171 29.168C102.766 30.1493 102.211 31.024 101.507 31.792C100.825 32.5387 100.035 33.136 99.1393 33.584C98.2646 34.0107 97.3473 34.224 96.3873 34.224ZM95.6193 28.464C96.0459 28.464 96.4299 28.3573 96.7713 28.144C97.1339 27.9307 97.4219 27.6533 97.6353 27.312C97.8486 26.9493 97.9553 26.5653 97.9553 26.16C97.9553 25.7333 97.8486 25.3493 97.6353 25.008C97.4433 24.6453 97.1659 24.368 96.8033 24.176C96.4619 23.9627 96.0779 23.856 95.6513 23.856C95.2246 23.856 94.8299 23.9627 94.4673 24.176C94.1259 24.3893 93.8486 24.6667 93.6353 25.008C93.4433 25.3493 93.3473 25.7333 93.3473 26.16C93.3473 26.5653 93.4539 26.9493 93.6673 27.312C93.8806 27.6533 94.1579 27.9307 94.4993 28.144C94.8406 28.3573 95.2139 28.464 95.6193 28.464ZM90.3713 34.256C89.4113 34.256 88.7286 34.1173 88.3233 33.84C87.9179 33.5413 87.6726 33.168 87.5872 32.72C87.5233 32.272 87.4913 31.8133 87.4913 31.344V13.584C87.4913 13.0933 87.5339 12.6347 87.6193 12.208C87.7046 11.76 87.9499 11.3973 88.3553 11.12C88.7606 10.8427 89.4433 10.704 90.4033 10.704C91.3633 10.704 92.0353 10.8533 92.4193 11.152C92.8033 11.4293 93.0273 11.792 93.0913 12.24C93.1553 12.688 93.1766 13.1467 93.1553 13.616V32.656C93.0059 33.2107 92.7179 33.616 92.2913 33.872C91.8859 34.128 91.2459 34.256 90.3713 34.256ZM111.994 34.288C111.013 34.288 110.149 34.2453 109.402 34.16C108.677 34.0747 108.058 33.904 107.546 33.648C107.034 33.392 106.618 33.0293 106.298 32.56C105.978 32.0693 105.743 31.44 105.594 30.672C105.445 29.8827 105.37 28.9013 105.37 27.728V13.552C105.37 13.0613 105.413 12.6027 105.498 12.176C105.583 11.728 105.829 11.3653 106.234 11.088C106.639 10.7893 107.322 10.64 108.282 10.64C109.242 10.64 109.914 10.7893 110.298 11.088C110.703 11.3653 110.949 11.728 111.034 12.176C111.119 12.624 111.162 13.0933 111.162 13.584V27.376C111.162 27.696 111.162 27.952 111.162 28.144C111.183 28.3147 111.215 28.4427 111.258 28.528C111.322 28.6133 111.407 28.6667 111.514 28.688C111.642 28.688 111.813 28.688 112.026 28.688C112.303 28.688 112.591 28.7307 112.89 28.816C113.21 28.88 113.477 29.104 113.69 29.488C113.925 29.8507 114.042 30.4907 114.042 31.408C114.042 32.368 113.925 33.0507 113.69 33.456C113.477 33.8613 113.21 34.096 112.89 34.16C112.57 34.2453 112.271 34.288 111.994 34.288Z" fill="#f8fafc"/>
<path d="M123.404 34.64C121.804 34.64 120.449 34.384 119.34 33.872C118.23 33.3387 117.334 32.656 116.652 31.824C115.969 30.9707 115.468 30.0533 115.148 29.072C114.828 28.0907 114.668 27.1413 114.668 26.224C114.668 24.5387 115.041 23.056 115.788 21.776C116.534 20.496 117.569 19.4933 118.891 18.768C120.214 18.0427 121.729 17.68 123.436 17.68C124.758 17.68 125.889 17.8933 126.828 18.32C127.766 18.7467 128.524 19.2907 129.1 19.952C129.697 20.6133 130.134 21.3173 130.412 22.064C130.689 22.8107 130.828 23.504 130.828 24.144C130.828 25.36 130.529 26.288 129.932 26.928C129.334 27.568 128.566 27.888 127.628 27.888H120.812C120.897 28.2293 121.068 28.528 121.324 28.784C121.601 29.0187 121.942 29.2107 122.348 29.36C122.753 29.488 123.19 29.552 123.66 29.552C124.129 29.552 124.545 29.5307 124.908 29.488C125.27 29.424 125.58 29.3493 125.836 29.264C126.113 29.1787 126.358 29.0933 126.572 29.008C126.806 28.9227 127.009 28.8587 127.18 28.816C127.372 28.752 127.553 28.72 127.724 28.72C128.108 28.72 128.46 28.848 128.78 29.104C129.1 29.36 129.388 29.744 129.644 30.256C129.793 30.5333 129.9 30.8 129.964 31.056C130.028 31.2907 130.06 31.5147 130.06 31.728C130.06 32.368 129.793 32.9013 129.26 33.328C128.748 33.7547 128.001 34.0747 127.02 34.288C126.038 34.5227 124.833 34.64 123.404 34.64ZM120.812 24.88H124.396C124.694 24.88 124.908 24.816 125.036 24.688C125.185 24.56 125.26 24.368 125.26 24.112C125.26 23.8347 125.174 23.6 125.004 23.408C124.854 23.216 124.641 23.0773 124.364 22.992C124.086 22.8853 123.756 22.832 123.372 22.832C122.86 22.832 122.412 22.9387 122.028 23.152C121.644 23.344 121.345 23.6 121.132 23.92C120.94 24.2187 120.833 24.5387 120.812 24.88Z" fill="#3F74C6"/>
<path d="M139.185 34.224C138.225 34.224 137.297 34.0107 136.401 33.584C135.526 33.136 134.737 32.5387 134.033 31.792C133.35 31.024 132.806 30.1493 132.401 29.168C131.995 28.1867 131.793 27.1627 131.793 26.096C131.793 25.072 131.995 24.08 132.401 23.12C132.806 22.16 133.361 21.3067 134.065 20.56C134.769 19.792 135.558 19.184 136.433 18.736C137.329 18.288 138.246 18.064 139.185 18.064C140.209 18.064 141.094 18.288 141.841 18.736C142.587 19.1627 143.206 19.7493 143.697 20.496C144.187 21.2427 144.55 22.096 144.785 23.056C145.041 24.016 145.179 25.008 145.201 26.032C145.222 27.0773 145.115 28.0907 144.881 29.072C144.646 30.032 144.283 30.9067 143.793 31.696C143.302 32.464 142.673 33.0827 141.905 33.552C141.158 34 140.251 34.224 139.185 34.224ZM139.953 28.464C140.358 28.464 140.731 28.3573 141.073 28.144C141.414 27.9307 141.691 27.6533 141.905 27.312C142.118 26.9493 142.225 26.5653 142.225 26.16C142.225 25.7333 142.118 25.3493 141.905 25.008C141.713 24.6667 141.446 24.3893 141.105 24.176C140.763 23.9627 140.369 23.856 139.921 23.856C139.494 23.856 139.099 23.9627 138.737 24.176C138.395 24.368 138.118 24.6453 137.905 25.008C137.713 25.3493 137.617 25.7333 137.617 26.16C137.617 26.5653 137.723 26.9493 137.937 27.312C138.15 27.6533 138.438 27.9307 138.801 28.144C139.163 28.3573 139.547 28.464 139.953 28.464ZM145.201 34.256C144.347 34.256 143.707 34.128 143.281 33.872C142.854 33.616 142.566 33.2107 142.417 32.656V13.616C142.417 13.1467 142.438 12.688 142.481 12.24C142.545 11.792 142.769 11.4293 143.153 11.152C143.537 10.8533 144.209 10.704 145.169 10.704C146.15 10.704 146.833 10.8427 147.217 11.12C147.622 11.3973 147.867 11.76 147.953 12.208C148.038 12.6347 148.081 13.0933 148.081 13.584V31.344C148.081 31.8133 148.038 32.272 147.953 32.72C147.867 33.168 147.622 33.5413 147.217 33.84C146.833 34.1173 146.161 34.256 145.201 34.256Z" fill="#E65747"/>
<path d="M157.255 34.224C156.231 34.224 155.271 34.0213 154.375 33.616C153.501 33.2107 152.733 32.6453 152.071 31.92C151.41 31.1733 150.898 30.3093 150.535 29.328C150.173 28.3467 149.991 27.28 149.991 26.128V20.912C149.991 20.4213 150.034 19.9627 150.119 19.536C150.205 19.088 150.45 18.7253 150.855 18.448C151.261 18.1493 151.943 18 152.903 18C153.885 18 154.567 18.1493 154.951 18.448C155.357 18.7253 155.602 19.088 155.687 19.536C155.773 19.984 155.815 20.4533 155.815 20.944V26.128C155.815 26.6187 155.901 27.0347 156.071 27.376C156.263 27.7173 156.53 27.984 156.871 28.176C157.234 28.3467 157.65 28.432 158.119 28.432C158.589 28.432 158.994 28.336 159.335 28.144C159.677 27.952 159.943 27.6853 160.135 27.344C160.327 27.0027 160.423 26.5973 160.423 26.128V20.88C160.423 20.3893 160.466 19.9307 160.551 19.504C160.637 19.056 160.882 18.6933 161.287 18.416C161.693 18.1387 162.375 18 163.335 18C164.317 18 164.999 18.1493 165.383 18.448C165.789 18.7253 166.034 19.088 166.119 19.536C166.205 19.984 166.247 20.4427 166.247 20.912V31.44C166.247 31.9093 166.205 32.3573 166.119 32.784C166.034 33.2107 165.789 33.5627 165.383 33.84C164.978 34.1173 164.295 34.256 163.335 34.256C162.631 34.256 162.077 34.1707 161.671 34C161.287 33.8507 161.01 33.6587 160.839 33.424C160.669 33.168 160.562 32.9227 160.519 32.688C160.498 32.432 160.487 32.2187 160.487 32.048L161.031 32.208C161.031 32.208 160.946 32.3147 160.775 32.528C160.605 32.72 160.349 32.9547 160.007 33.232C159.687 33.488 159.293 33.7227 158.823 33.936C158.375 34.128 157.853 34.224 157.255 34.224Z" fill="#F2D247"/>
</svg>
